<?xml version="1.0" encoding="utf-8"?>
<!-- Generator: Adobe Illustrator 24.2.0, SVG Export Plug-In . SVG Version: 6.00 Build 0)  -->
<svg version="1.1" id="Layer_1" xmlns="http://www.w3.org/2000/svg" xmlns:xlink="http://www.w3.org/1999/xlink" x="0px" y="0px"
	 viewBox="0 0 498 125" style="enable-background:new 0 0 498 125;" xml:space="preserve">
<style type="text/css">
	.st0{fill:#77787B;}
</style>
<desc>Created with Sketch.</desc>
<g>
	<g>
		<path class="st0" d="M87.1,8.6C57.2,8.6,33,32.9,33,62.8c0,29.9,24.2,54.1,54.1,54.1c29.9,0,54.1-24.2,54.1-54.1
			C141.3,32.9,117,8.6,87.1,8.6z M121.3,78.7c-0.1-0.1-0.4-0.2-0.5-0.3c-4.3-1-4.4-5.6-4.4-6.9c-3.6,0-5.1-4-5.4-5
			c-0.3-0.9-0.6-1.9-0.7-2.9c0,1.9-2.9,3.6-5.9,0.5c0,3.2-3.8,2.6-5.7,0.7c-0.2,0.6-1.2,2.3-1.2,2.3c2.2,0.4,3.1,0.9,4.2,1.8
			c2.4,2.1,2.7,5.6,2.7,7.4c0,0,3.3,3.2,4.6,4.4c0.4,0.4,0.8,0.7,1.2,1c3.4-3.8,4.5-2.3,4.5-2.3c2.5-1,3.9,0.8,3.3,1.7
			c-0.6-0.7-1.5-0.5-2.1,0l0,0c3.4,0.6,2.6,3,1.7,3.6c0-0.7-0.2-1.5-1.3-1.6c0.1,1.1-0.7,1.3-1.4,1.3c-1.7,0.1-4.5,0.1-5.3,1
			c-0.5,0.5-0.3,1.9-0.8,2.3c-0.4,0.4-0.9,0.3-1.1,0.3c-0.1,0.5,0.1,1.1,0.7,1.8c-2.4,0.2-4.2-1.9-3-3.1c0.5-0.5,2.2-2.1,2.3-2.8
			c0.1-0.8-0.7-1.6-1.2-2.1c-1.2-1-2.4-2-3.7-2.9c-0.4-0.3-0.8-0.5-1.2-0.8c-0.3-0.2-0.8-0.3-1.2-0.1c-0.9,0.3-0.9,0.3-1.2,0.1
			c-0.9-0.6-2.6-2-6-2.3c0.2,0.1,0.4,0.3,0.5,0.5c0.2,0.3,0.3,0.6,0.5,1c0.2,0.5,0.4,1,0.6,1.4c2.2,5.3,4.4,10.5,6.7,15.7
			c0.7,1.7,0.1,3.3-1.7,4.1c-1.3,0.6-2.8,0.3-3.7-1c0.3,0.9,0.4,1.6,0,2.4c-0.4,0.7-0.9,1.2-1.7,1.6c-0.7,0.3-1.6,0.4-2.3,0.3
			c-0.8-0.2-1.3-0.7-1.7-1.5c-0.1,1.7-1.2,3-3.1,3s-3-1.3-3.1-3c-0.4,0.8-0.9,1.3-1.7,1.5c-0.8,0.2-1.6,0-2.3-0.3
			c-0.7-0.3-1.3-0.8-1.7-1.6c-0.4-0.7-0.2-1.5,0-2.4c-0.9,1.3-2.4,1.6-3.7,1c-1.8-0.8-2.5-2.4-1.7-4.1c2.2-5.3,4.4-10.5,6.7-15.7
			c0.2-0.5,0.4-1,0.6-1.4c0.2-0.4,0.3-0.7,0.5-1c0.1-0.2,0.3-0.3,0.5-0.5c-3.5,0.4-5.1,1.7-6,2.3c-0.2,0.2-0.2,0.2-1.2-0.1
			c-0.4-0.1-0.9-0.1-1.2,0.1c-0.4,0.2-0.8,0.5-1.2,0.8c-1.2,1-2.5,1.9-3.7,2.9c-0.5,0.5-1.3,1.3-1.2,2.1c0.1,0.7,1.8,2.3,2.3,2.8
			c1.2,1.1-0.6,3.3-3,3.1c0.6-0.7,0.8-1.3,0.7-1.8c-0.2,0-0.7,0-1.1-0.3c-0.5-0.5-0.3-1.9-0.8-2.3c-0.9-0.8-3.6-0.9-5.3-1
			c-0.7,0-1.4-0.2-1.4-1.3c-1.1,0.1-1.3,0.9-1.3,1.6c-0.9-0.5-1.7-3,1.7-3.6l0,0c-0.6-0.5-1.5-0.7-2.1,0c-0.5-0.9,0.8-2.7,3.3-1.7
			c0,0,1.1-1.5,4.5,2.3c0.4-0.3,0.8-0.6,1.2-1c1.3-1.2,4.6-4.4,4.6-4.4c0-1.8,0.3-5.3,2.7-7.4c1-0.9,2-1.4,4.2-1.8
			c0,0-1-1.6-1.2-2.3c-1.9,1.9-5.7,2.4-5.7-0.7c-3.1,3.1-5.9,1.4-5.9-0.5c-0.1,0.9-0.3,2-0.7,2.9c-0.4,1-1.8,5-5.4,5
			c-0.1,1.4-0.1,5.9-4.4,6.9c-0.2,0-0.4,0.1-0.5,0.3c-1.8,2.2-9.1,4.5-10,3.9c0.6-0.4,1.5-0.9,1.6-3.5c0.1-1.7,0.3-10.5,0.3-22.9
			c0-4.4,0.5-18.6,14.5-20.5c2.1-0.3,4.2-0.1,6,1.2c2.5,1.8,3.7,4.9,2.2,8.5c0,0.1-0.1,0.3-0.1,0.4c-0.5,0.8-0.3,1.6,0.4,2.2
			c1.2,1.2,2.5,2,4.2,2.1c1,0.1,1.9-0.3,2.6-1c1.6-1.6,2.6-3.5,3-5.8c0.7-4.3-0.4-6.4-0.5-6.5c-1.1-2.3-3.6-4-6.4-4.2
			c-1.3-2.4-5-1.5-5-1.5c-0.9,0.2-1.3,0.5-1.5,0.9c0,0-1.6-2.5-0.1-3.5c1.5-1,4.9-1.4,4.9-1.4c0-1.6,2.7-2.9,7.5-2
			c5.8,1,7.1-1.2,7.1-1.2c0.2,2.8-1.9,4.2-2.6,4.6c2.2,2.4,5.3,7.2,6,13.9c0.7-6.8,3.8-11.6,6-13.9c-0.7-0.4-2.8-1.8-2.6-4.6
			c0,0,1.2,2.3,7.1,1.2c4.8-0.9,7.5,0.4,7.5,2c0,0,3.4,0.4,4.9,1.4c1.5,1-0.1,3.5-0.1,3.5c-0.2-0.5-0.6-0.7-1.5-0.9c0,0-3.7-1-5,1.5
			c-2.8,0.2-5.2,1.9-6.4,4.2c-0.1,0.1-1.1,2.3-0.5,6.5c0.3,2.2,1.5,4.1,3,5.8c0.7,0.7,1.5,1.2,2.6,1c1.6-0.2,3-1,4.2-2.1
			c0.6-0.6,0.8-1.4,0.4-2.2c-0.1-0.1-0.1-0.2-0.1-0.4c-1.5-3.5-0.2-6.6,2.2-8.5c1.8-1.3,3.9-1.5,6-1.2c14,2,14.5,16.2,14.5,20.5
			c0,12.4,0.2,21.2,0.3,22.9c0.1,2.6,1,3.1,1.6,3.5C130.4,83.2,123.1,80.9,121.3,78.7z"/>
	</g>
	<g>
		<path class="st0" d="M178.6,43.9c3,0,9.1-0.3,12.6-0.5c-0.1,0.6-0.2,1.7-0.2,1.9c0,0.4,0.1,1.2,0.2,1.8c-3.1-0.4-8.2-0.7-9.8-0.7
			c-1.1,0-5.5,0.1-7.8,0.3v13.4h2.7c5.6,0,17.3,1.1,17.3,10.8c0,7.9-6.6,11.5-15.3,11.4c-1,0-4.6-0.2-6.9-0.2c-1,0-2.2,0.1-3.1,0.2
			c0.3-5.9,0.4-14,0.4-20.8c0-6,0-15.2-0.4-18.2C171.7,43.6,177.3,43.9,178.6,43.9z M173.5,79.2c1.4,0.1,3,0.1,4.5,0.1
			c6.3,0,10-3,10-8.5c0-5.9-4.4-7.9-14.6-7.9V79.2z"/>
		<path class="st0" d="M199.6,58.4c2.1-2.6,5.9-3.7,9.2-3.7c5.6,0,9.5,2.8,9.5,9.5v13.3c0,2.7,0.6,3.4,1.7,3.4c0.4,0,1-0.1,1.3-0.2
			l0.3,1.3c-1.7,0.9-3.3,1-4,1c-1.8,0-2.9-0.8-3.3-2.4l-0.3-1.2c-2.9,2.3-6.1,3.5-8.7,3.5c-4.9,0-8-2.6-8-7.1c0-4.8,3.6-7.1,8.5-8
			l5.5-1c1.8-0.3,2.8-0.9,2.8-2.2c0-5.8-2.5-7.3-6.5-7.3c-3.2,0-5.5,0.9-7.2,4.4h-0.6V58.4z M214,68.5l-3.5,0.5
			c-3.9,0.6-8.1,1.9-8.1,6c0,3.1,1.7,4.8,5.2,4.8c2.1,0,4.3-0.8,6.5-3V68.5z"/>
		<path class="st0" d="M228.9,55.4c0.6,0,1.7-0.1,2.5-0.2C231,59.3,231,66,231,66.3c2.3,0.1,5.5,0.2,7.2,0.2c1.8,0,5.1-0.1,6.7-0.2
			c0-0.3-0.1-7.1-0.5-11.1c0.9,0.1,2.1,0.2,2.7,0.2c0.6,0,1.7-0.1,2.5-0.2c-0.4,4-0.5,10.8-0.5,13.5c0,2.3,0.1,9.5,0.5,13.6
			c-0.8-0.1-1.7-0.2-2.5-0.2c-0.9,0-2,0.1-2.8,0.2c0.4-4.1,0.5-11.3,0.5-13c-2.4-0.2-5.6-0.4-6.8-0.4c-1.5,0-5,0.1-7.2,0.3
			c0,1.8,0.1,9.1,0.5,13.1c-0.8-0.1-1.7-0.2-2.5-0.2c-0.9,0-2,0.1-2.8,0.2c0.4-4.1,0.5-11.3,0.5-13.6c0-2.7-0.1-9.5-0.5-13.5
			C227.1,55.3,228.3,55.4,228.9,55.4z"/>
		<path class="st0" d="M259.7,55.4c0.6,0,1.7-0.1,2.5-0.2c-0.4,4-0.5,10.8-0.5,11.8h0.9c1.8,0,10.8-10.3,11.7-11.8
			c0.7,0.1,2,0.2,2.6,0.2c0.5,0,1.8-0.1,2.6-0.2l-12.8,11.5c1.6,1.9,10.1,11.5,14,15.6c-1.4-0.1-2.5-0.2-3.2-0.2
			c-1,0-2.4,0.1-3.5,0.2c-2-3.1-8-10.2-11.3-13.9h-0.9c0,2,0,9.8,0.5,13.9c-0.8-0.1-1.6-0.2-2.5-0.2c-0.9,0-2,0.1-2.8,0.2
			c0.4-4.1,0.5-11.3,0.5-13.6c0-2.7-0.1-9.5-0.5-13.5C257.9,55.3,259.1,55.4,259.7,55.4z"/>
		<path class="st0" d="M304.4,43.6c1.9,0,4.3-0.2,5.7-0.2c9.9,0,13.8,3,13.8,9.7c0,8.7-7.3,11.5-16.1,11.5c-0.5,0-2.5-0.1-3.5-0.2
			v9.3c0,2.7,0.1,5.9,0.4,8.6c-0.9-0.1-1.8-0.2-2.7-0.2c-1,0-2.1,0.1-3,0.2c0.3-5.9,0.4-14,0.4-20.8c0-6-0.1-15.2-0.4-18.2
			C300.7,43.4,303.1,43.6,304.4,43.6z M306.5,61.8c7.5,0,11.9-3,11.9-8.7c0-5.3-4.2-6.7-9.4-6.7c-0.9,0-4,0.1-4.8,0.2v15
			C304.9,61.7,305.9,61.8,306.5,61.8z"/>
		<path class="st0" d="M351.7,68.6c0,8.2-5.3,14.3-13.7,14.3c-8.2,0-13.4-6-13.4-13.5c0-8.9,5.7-14.7,13.9-14.7
			C346.6,54.7,351.7,60.6,351.7,68.6z M329.7,69.2c0,6.1,2.5,11.6,8.2,11.6c5.5,0,8.7-5.2,8.7-12.4c0-5.8-2.3-11.6-8.3-11.6
			C332.5,56.8,329.7,62.8,329.7,69.2z"/>
		<path class="st0" d="M377.9,61.1h-0.6c-1.9-3-4.5-4.3-7.4-4.3c-6.3,0-9.3,6.1-9.3,11.9c0,6.8,3.7,12.1,10.4,12.1
			c2.2,0,4.2-0.3,7.3-3.7l0.5,0.6l-0.6,2.6c-2.6,1.7-5.5,2.6-8.8,2.6c-8.4,0-13.8-5.8-13.8-14.1c0-8.6,5.9-14.1,14.5-14.1
			c2.8,0,5.8,0.5,9.3,2.4L377.9,61.1z"/>
		<path class="st0" d="M405,61.1h-0.6c-1.9-3-4.5-4.3-7.4-4.3c-6.3,0-9.3,6.1-9.3,11.9c0,6.8,3.8,12.1,10.4,12.1
			c2.2,0,4.2-0.3,7.3-3.7l0.5,0.6l-0.6,2.6c-2.6,1.7-5.5,2.6-8.8,2.6c-8.4,0-13.8-5.8-13.8-14.1c0-8.6,5.9-14.1,14.5-14.1
			c2.8,0,5.8,0.5,9.3,2.4L405,61.1z"/>
		<path class="st0" d="M412.9,82.2c-0.3,0-1.3,0.1-1.7,0.2c0.4-4.1,0.5-11.3,0.5-13.6c0-2.7-0.1-9.5-0.5-13.5
			c0.9,0.1,2.1,0.2,2.7,0.2c0.6,0,1.7-0.1,2.5-0.2c-0.4,4-0.5,10.8-0.5,13.5c0,2.3,0,5.4,0.1,6.9c2.9-3.6,13.4-16.9,16-20.5
			c0.6,0.1,1,0.2,1.6,0.2c0.3,0,1.4-0.1,2-0.2c-0.4,4-0.5,10.8-0.5,13.5c0,2.3,0.1,9.5,0.5,13.6c-0.8-0.1-1.7-0.2-2.5-0.2
			c-0.9,0-2,0.1-2.8,0.2c0.4-4.1,0.5-11.3,0.5-13.6c0-2.8-0.1-6.2-0.1-7.3c-3.7,3.7-13.3,16.3-16.3,20.9
			C414,82.2,413.5,82.2,412.9,82.2z"/>
		<path class="st0" d="M443.2,82.2c-0.3,0-1.3,0.1-1.7,0.2C442,78.3,442,71,442,68.8c0-2.7-0.1-9.5-0.5-13.5
			c0.9,0.1,2.1,0.2,2.7,0.2c0.6,0,1.7-0.1,2.5-0.2c-0.4,4-0.5,10.8-0.5,13.5c0,2.3,0,5.4,0.1,6.9c2.9-3.6,13.4-16.9,16-20.5
			c0.6,0.1,1,0.2,1.6,0.2c0.3,0,1.4-0.1,2-0.2c-0.4,4-0.5,10.8-0.5,13.5c0,2.3,0.1,9.5,0.5,13.6c-0.8-0.1-1.7-0.2-2.5-0.2
			c-0.9,0-2,0.1-2.8,0.2c0.4-4.1,0.5-11.3,0.5-13.6c0-2.8,0-6.2-0.1-7.3c-3.6,3.7-13.3,16.3-16.3,20.9
			C444.3,82.2,443.8,82.2,443.2,82.2z"/>
	</g>
</g>
</svg>
