<?xml version="1.0" encoding="UTF-8"?> <!-- Creator: CorelDRAW 2019 (64-Bit) --> <svg xmlns="http://www.w3.org/2000/svg" xmlns:xlink="http://www.w3.org/1999/xlink" xmlns:xodm="http://www.corel.com/coreldraw/odm/2003" xml:space="preserve" width="67.0363mm" height="30.0743mm" style="shape-rendering:geometricPrecision; text-rendering:geometricPrecision; image-rendering:optimizeQuality; fill-rule:evenodd; clip-rule:evenodd" viewBox="0 0 56421.57 25312.25"> <defs> <style type="text/css"> <![CDATA[ .fil0 {fill:black;fill-rule:nonzero} ]]> </style> </defs> <g id="Слой_x0020_1"> <metadata id="CorelCorpID_0Corel-Layer"></metadata> <g> <path class="fil0" d="M2500.48 9901.09l-1771.27 -412.5 -153.27 658.26 1703.26 703.63 221.27 -949.39zm28800.91 1884.55l0 -3210.33 402.65 0 0 1290.43 1194.48 -1290.43 514.67 0 -1302.04 1440.58 1411.8 1769.75 -512.48 0 -1306.42 -1619.68 0 1619.68 -402.65 0zm-7862.93 3386.83l84.5 -482.27c21.46,-122.38 10.77,-217.99 -31.98,-286.25 -42.17,-67.16 -117.24,-110.43 -225.06,-129.19l-4.88 -0.84c-105.71,-18.6 -189.54,-3.28 -251.23,45.03 -62.79,49.24 -105.38,133.82 -127.34,252.92l-85.18 488.92 641.17 111.69zm1409.94 628.38l-2471.69 -435.05 147.46 -841.74c19.78,-113.2 52.69,-212.43 98.22,-297.19 45.87,-85.6 104.95,-156.72 176.5,-212.94 70.45,-59.34 150.66,-98.81 240.12,-118.34 88.63,-19.36 186.51,-19.44 293.06,-0.93 83.74,14.48 159.91,39.81 227.92,75.33 68.85,35.94 129.53,82.48 181.97,139.13l1.01 1.09c48.82,57.99 85.93,123.3 111.01,195.26 20.54,58.83 33.25,122.46 38.13,190.38l1309.37 -526.2 -76.34 437.16 -1275.62 511.31 -55.47 316.55 1150.29 201.83 -64.47 369.82 -31.48 -5.47zm-1035.74 2755.92l-2291.75 -1020.26 604.73 -1357 329.93 146.11 -452.47 1014.95 591.6 262.93 365.62 -820.87 330.1 148.97 -365.7 820.45 740.15 329.34 466.19 -1045.51 329.68 146.11c-205.53,462.83 -411.82,925.57 -618.87,1387.72l-29.21 -12.96zm-3440.61 1223.43l-262.93 -198.21c361.91,-480.92 723.74,-962.27 1084.14,-1444.37l288.86 217.4 -429.41 572.66 1742.99 1308.86 -225.48 298.96 -1742.99 -1308.69 -429.58 572.66 -25.59 -19.27zm-588.57 3404.76l-1579.87 -1949.87 322.02 -261.84 1993.46 766.5 -1164.1 -1437.72 291.21 -237.18 1600.16 1974.53 -322.69 261.92 -1987.66 -758.92 1158.71 1430.06 -291.13 237.35 -20.12 -24.83zm-2606.53 1376.03l-1042.22 -2283.84 1351.03 -617.02 149.98 329 -1009.9 462.74 268.91 588.74 817 -373.36 149.98 329.17 -816.91 373.27 336.33 736.87 1041.97 -478.15 149.98 329.09 -1382.93 632.51 -13.21 -29.04zm-3647.91 -383.63c-35.85,-201.49 -40.4,-386.15 -13.63,-553.05 26.93,-167.91 85.6,-317.98 175.82,-449.53 91.4,-130.29 199.39,-234.91 323.7,-313.77 124.4,-78.95 265.29,-132.39 422.43,-159.91 127.17,-23.48 247.19,-27.35 359.81,-11.61 112.95,15.82 219.17,51.68 317.89,107.4 99.23,55.13 186.26,123.89 260.49,205.87 74.15,81.98 135.59,176.83 183.9,284.31l12.71 28.28 -339.61 165.05 -14.48 -27.1c-86.02,-160.5 -189.12,-273.88 -308.8,-339.78 -118.67,-65.4 -255.19,-84.59 -409.38,-57.82 -111.6,19.61 -209.07,57.15 -291.89,112.11 -82.65,54.79 -151.67,127.6 -206.63,217.82 -55.55,93.09 -91.07,199.64 -106.05,319.41 -15.15,121.11 -9.59,256.28 16.92,405.17 26.51,149.98 67.84,279.35 123.64,387.5 55.21,107.06 124.99,193.83 208.9,259.99 82.57,66.15 172.37,110.93 268.99,134.08 96.79,23.15 201.41,24.91 313.43,5.22 153.52,-26.76 274.72,-91.49 363.6,-193.5 89.89,-103.27 147.71,-245.6 173.3,-426.05l4.29 -30.72 376.56 39.73 -2.27 30.97c-9.01,119.6 -34.34,230.36 -75.66,332.37 -41.41,102.18 -99.23,196.02 -173.13,281.79 -73.06,84.75 -160.08,153.77 -260.58,207.05 -99.99,53.02 -213.44,90.65 -339.95,112.87 -156.8,27.52 -307.46,26.18 -451.46,-5.05 -144.01,-31.14 -281.45,-92.41 -411.91,-184.32 -130.54,-93.76 -237.18,-214.29 -320,-361.74 -80.46,-143.08 -138.79,-312.17 -174.56,-506.76l-4.04 -2.61 -2.36 -13.63zm-4793.24 672.23l581.42 -2439.37 403.74 96.03 609.95 2045.31 428.24 -1798.71 365.11 86.35c-195.6,824.49 -391.62,1649.06 -589.33,2473.04l-403.66 -96.03 -611.55 -2037.9 -426.38 1791.38 -364.94 -89.3 7.41 -30.8zm-2682.78 -2666.87c101.67,-180.62 215.89,-327.32 342.13,-439.6 127.34,-113.12 267.14,-191.65 419.23,-235.07 151.58,-43.26 300.72,-56.39 446.84,-38.97 146.03,17.34 289.45,65.4 429.75,144.09 113.2,64.3 208.82,138.12 286.75,221.52 78.44,84.08 139.13,178.18 181.63,282.71 41.58,100.33 65.23,206.29 70.36,317.22 5.13,110.43 -7.91,226.32 -39.05,346.93l-7.83 30.22 -369.07 -85.51 5.81 -30.13c34.51,-181.71 26.01,-336.41 -25.17,-463.84 -50.67,-126.08 -144.18,-226.91 -280.1,-302.49 -98.81,-55.3 -198.29,-88.63 -298.03,-98.98 -99.4,-10.35 -200.23,1.94 -301.82,37.37 -100.91,36.78 -195.18,96.45 -282.21,179.53 -88.04,83.91 -169.09,192.15 -243.07,324.8 -74.74,132.31 -125.15,258.39 -151.25,377.74 -25.75,117.92 -27.69,229.27 -5.98,333.3 23.4,104.37 65.73,197.03 126.59,276.99 60.6,79.87 140.3,147.88 238.69,203.09 85.68,47.89 169.59,78.02 251.07,89.89 80.71,11.7 159.75,5.72 236.76,-18.35 77.94,-23.15 149.73,-61.61 215.63,-115.05 59.17,-47.89 113.88,-108.32 163.87,-180.79l-460.22 -257.04 177 -313.94 780.13 437.75 -642.44 1144.82 -288.35 -163.03 114.13 -254.69c-30.13,12.88 -61.53,23.57 -94.27,32.24 -63.63,16.75 -132.39,26.18 -206.21,28.78l-1.09 0.08c-70.11,0 -141.48,-10.02 -213.78,-30.3 -71.54,-20.12 -144.43,-50.58 -217.91,-91.4 -135.68,-76.09 -248.54,-171.61 -338.09,-286.5 -89.64,-114.89 -155.96,-249.05 -199.05,-402.48 -41.41,-152 -46.8,-311.75 -16.24,-478.57 29.04,-158.74 90.9,-324.29 185.08,-496.49l-3.28 -2.78 13.05 -23.06zm-1946.25 -33.58l1656.97 -1885.06 281.62 246.77c-557.6,637.56 -1117.3,1274.44 -1678.18,1909.05l-281.62 -246.69 21.21 -24.07zm-1402.62 -2580.44l333.46 127.26 -24.41 33.83c-49.66,68.76 -90.14,134.41 -121.37,197.45 -30.72,62.11 -52.52,121.79 -65.06,179.19 -11.03,54.62 -8.58,109.84 6.99,164.29 15.74,55.13 45.45,110.26 88.54,164.38 42.08,54.2 87.78,94.43 136.69,121.03 48.14,26.09 100.24,39.64 155.96,40.74 48.73,1.09 95.86,-6.65 140.89,-22.56 45.45,-16.08 89.3,-40.74 131.13,-73.06 37.29,-30.13 66.07,-65.06 86.27,-104.28 20.2,-39.39 32.15,-83.91 35.6,-133.4 2.27,-51.43 -0.67,-109.67 -8.58,-175.06 -8.08,-66.66 -21.63,-140.47 -40.15,-222.11l-29.96 -144.77 -20.03 -113.03c-5.47,-29.04 -8.92,-63.46 -10.18,-102.51 -1.26,-39.31 -0.42,-83.41 2.36,-131.64 1.51,-44.19 7.74,-86.1 18.52,-125.49 10.86,-39.47 26.43,-76.51 46.46,-110.59 19.53,-36.44 43.68,-71.04 72.13,-103.61 28.03,-32.32 60.94,-63.12 98.31,-92.58 73.64,-58.75 151.75,-100.41 233.81,-124.48 82.48,-24.24 169.26,-30.89 259.74,-20.28 87.95,10.69 167.57,35.01 238.61,73.73 71.12,38.8 133.66,92.25 187.1,160.67 53.7,68.43 95.44,135.34 124.57,200.74 29.71,66.41 46.88,131.55 51.26,195.35l0 1.35c1.6,66.32 -4.54,132.22 -18.1,197.03 -13.63,64.47 -34.93,128.1 -63.8,190.3l-12.04 25.84 -340.79 -111.35 12.2 -31.48c21.38,-55.38 36.02,-104.7 43.68,-147.71 7.32,-41.33 8.33,-76.59 3.03,-106.05l-0.34 -2.78c-2.86,-31.14 -11.19,-62.62 -24.83,-93.84 -13.72,-31.06 -33.08,-62.45 -58.07,-93.34 -23.23,-30.22 -49.66,-53.02 -79.45,-69.02 -29.79,-15.99 -63.29,-25.67 -100.24,-29.21 -38.97,-2.19 -75.41,1.85 -108.66,11.61 -33.58,10.1 -64.56,26.26 -92.58,48.14 -18.94,14.98 -36.28,31.98 -51.93,50.92 -15.49,18.6 -29.12,39.22 -40.74,61.36l-1.01 1.85c-10.35,17 -17.84,37.12 -22.14,60.68 -4.46,24.74 -5.55,53.53 -3.37,86.77l0.08 2.1c0,24.91 0.93,51.17 2.78,78.44 1.68,27.44 4.54,55.55 8.16,84.08l63.29 312.84 15.82 89.64c4.38,27.19 7.74,56.39 10.1,87.03 2.27,30.13 3.96,64.13 4.8,101.34 0.67,38.97 -0.42,74.74 -3.28,107.4 -3.2,34.17 -8.16,65.82 -14.81,94.77l-0.42 1.35c-8.25,29.71 -19.11,59.42 -32.15,89.05 -12.96,29.37 -28.62,59.42 -46.63,89.97 -20.37,32.82 -43.35,63.21 -68.93,91.74 -25.5,28.28 -53.87,55.13 -84.92,80.46 -81.81,64.05 -167.66,110.09 -257.46,138.28 -90.14,28.36 -184.24,39.05 -282.12,32.4 -109.75,-7.91 -210.58,-36.78 -302.41,-87.03 -91.49,-49.99 -173.8,-121.2 -246.61,-214.03 -64.3,-80.46 -111.77,-166.06 -142.16,-255.44 -30.55,-90.31 -43.77,-184.58 -39.73,-281.96 5.55,-101 26.09,-197.2 61.44,-288.18 35.18,-90.56 85.09,-175.82 149.48,-254.77l14.73 -18.01 21.46 8.25zm-1823.7 -1985.22l2266.33 -1077.15c211.42,447.51 425.71,893.76 637.56,1341.1l-325.97 155.37 -476.71 -1002.25 -585.29 276.91 385.56 812.96 -326.23 152.34 -385.65 -810.01 -731.57 348.28 491.7 1035.41 -326.23 152.26c-218.24,-456.6 -436.32,-913.87 -652.45,-1371.48l28.95 -13.72zm-454.07 -2880.32l50.67 272.87c10.94,55.97 25.84,109.33 44.52,159.75 18.6,50.42 41.41,98.73 68.17,144.51 25.59,43.01 55.38,84 89.05,121.87 33.16,37.45 70.36,72.3 111.35,104.03 41.24,31.39 87.87,57.57 139.38,78.19 52.18,20.87 109.58,36.28 171.78,46.04 64.72,11.11 132.98,15.49 204.86,12.96 72.55,-2.44 149.06,-11.87 229.01,-28.03 79.03,-15.15 152.42,-35.18 220.35,-60.09 67.67,-24.83 130.12,-54.71 186.93,-89.3 54.79,-34.26 102.68,-71.2 143,-110.59 39.56,-38.72 72.21,-80.13 97.55,-123.64 26.18,-46.21 47.97,-93.09 64.72,-140.89 16.58,-47.13 28.36,-95.02 35.01,-143.76 5.89,-53.02 7.74,-106.72 5.47,-160.34 -2.27,-53.7 -9.01,-107.9 -19.61,-161.6l-53.95 -275.14 -1788.27 353.16zm-394.91 -304.85l2465.3 -486.81 137.19 698.83c31.9,161.18 33.16,315.62 3.96,462.66 -29.21,147.21 -89.3,287.51 -179.86,420.32 -88.04,131.47 -203.18,239.62 -345.08,324.12 -140.89,84.17 -308.55,145.02 -502.22,182.72 -194,38.88 -372.35,46.21 -534.28,21.8 -163.79,-24.58 -311.5,-81.47 -442.46,-169.85 -133.49,-88.12 -241.89,-194.76 -324.63,-319.75 -82.9,-125.32 -140.39,-269.33 -172.12,-431.77l-137.27 -696.13 31.48 -6.14zm23681.62 -4568.85l118.93 525.87c13.97,58.41 34.42,108.66 61.02,149.31 25.42,38.88 57.15,69.61 94.77,91.07 38.88,23.4 82.65,37.37 131.47,42 50.08,4.71 106.22,-0.17 167.99,-14.73 60.43,-14.48 112.19,-34.93 154.7,-61.19 41.33,-25.5 74.49,-56.98 98.89,-94.01 23.9,-38.97 38.72,-81.89 44.27,-128.61 5.72,-47.97 1.94,-100.66 -11.28,-158.32l-122.21 -523.51 -738.55 172.12zm1012.26 -588.49l195.77 840.98c27.35,117.16 35.52,224.97 24.58,323.62 -11.03,99.65 -41.75,189.96 -91.99,270.68 -48.98,81.89 -113.62,149.81 -193.75,203.26 -79.62,53.28 -174.73,92.67 -285.15,117.75 -109.58,25.08 -211.93,32.32 -306.7,20.7 -95.61,-11.7 -183.73,-42.84 -263.94,-94.01 -81.05,-51.09 -148.89,-119.09 -203.01,-203.43 -53.61,-83.66 -94.01,-183.48 -120.86,-299.38l-117.92 -505.58 -1033.13 240.21 -85.01 -363.93c824.82,-192.91 1649.14,-388.26 2473.8,-582.17l7.32 31.31zm-1509.26 -2700.46l294.92 -144.34 799.57 1616.49 -323.7 161.51 -316.72 -641.85 -1954.41 966.39 -166.14 -336.07 1954.58 -966.22 -316.97 -641.76 28.87 -14.14zm-3495.82 -979.86l1914.77 -1620.95 242.31 286.67 -772.73 654.3 689.99 812.62 772.73 -654.39 242.23 286.58 -1939.18 1644.26 -242.23 -286.67 890.89 -754.12 -689.82 -815.14 -891.15 754.12 -242.23 -286.58 24.41 -20.7zm-1849.46 -1428.21l1453.37 -2045.56c403.66,286.5 807.99,572.5 1210.81,860.17l-208.65 295 -905.71 -641.68 -375.04 525.7 731.99 521.49 -208.65 295 -732.75 -521.57 -469.06 661.04 933.57 664.91 -209.15 292.14c-412.75,-293.91 -825.67,-587.9 -1239.34,-880.54l18.6 -26.09zm-2546.1 -1132.95l895.44 -2343.43 350.38 135.51 -778.03 2034.62 997.11 381.02 777.86 -2037.4 350.21 135.59 -777.69 2036.98 221.27 82.57 -328.92 730.89 -329.51 -124.23 156.8 -411.74 -1546.38 -590.51 11.45 -29.88zm-4131.95 -281.28l-114.55 -2506.2 374.79 -18.52 46.12 1012.43 1066.46 -48.23 -46.38 -1012.43 374.79 -15.4c40.15,845.95 77.68,1692.4 115.48,2538.52l-374.37 15.4 -53.45 -1165.7 -1066.38 48.31 53.45 1165.61 -374.54 18.43 -1.43 -32.24zm-2831.92 -2134.53c-54.2,-2.78 -106.13,-16.83 -155.62,-41.83 -51.26,-26.26 -94.52,-59.59 -129.45,-100.41 -34.93,-40.82 -61.78,-89.47 -79.96,-145.86l-10.02 -30.72 284.82 -87.7 10.02 29.46c4.97,14.9 12.04,27.27 20.54,36.61 8.16,8.84 18.43,15.74 30.55,20.28l2.02 0.93c11.87,5.39 25.67,7.74 40.74,7.24 16.75,-0.42 35.27,-4.38 55.13,-11.03l1.51 -0.5c18.94,-5.3 35.1,-12.71 48.14,-21.71 12.29,-8.33 22.14,-18.52 29.12,-29.71 7.32,-13.89 11.7,-27.61 12.96,-41.07 1.26,-13.89 -0.5,-28.28 -5.3,-43.35l-9.68 -30.05 283.47 -94.27 10.02 30.47c18.68,57.4 26.51,113.29 23.4,167.07 -3.03,54.03 -17.34,106.3 -42.67,156.38 -25.33,49.07 -59.51,90.9 -101.92,125.41 -41.91,33.92 -92.08,60.85 -149.73,79.87 -58.24,19.02 -114.3,27.19 -168.08,24.49zm-603.22 487.15l325.64 -107.06 579.14 1754.94 434.38 -2089.16 393.73 -131.05c267.31,804.29 531.42,1610.09 796.12,2415.22l-355.85 117.24 -576.7 -1747.87 -436.99 2082.34 -394.23 128.02c-263.02,-804.62 -528.81,-1609.25 -795.87,-2412.53l30.64 -10.1zm-1519.19 2574.04l554.06 -360.48 -812.2 -642.1 258.14 1002.58zm-55.47 1206.52l-638.99 -2565.54 287.59 -185.84c708.17,549.27 1415.41,1100.47 2121.73,1652.09l-317.64 205.62 -544.38 -434.55 -756.4 491.19 176.5 674.92 -317.64 205.62 -10.77 -43.51zm-2048.93 1080.52l189.04 -263.61 26.09 18.43c121.79,86.35 235.58,127.26 341.04,121.62 104.2,-5.55 202.5,-57.32 294.5,-155.71 47.47,-49.83 82.48,-102.18 105.12,-157.14 22.3,-54.37 32.74,-112.11 31.48,-172.54 -2.44,-59.25 -18.43,-117.66 -47.55,-174.31 -29.54,-57.49 -72.72,-113.37 -129.03,-166.65 -57.4,-53.7 -115.81,-94.01 -174.73,-120.27 -57.82,-25.75 -116.65,-38.21 -176.24,-37.2 -61.19,2.27 -118.59,16.58 -171.7,41.75 -54.2,25.75 -104.79,63.29 -150.91,111.77 -25,26.51 -46.71,54.88 -64.47,84.75 -17.76,30.05 -32.32,62.54 -43.26,97.21l-8.16 25.84 -260.66 -34.84 -161.26 -901.41 -591.26 623.92 -252.24 -237.94c321.18,-340.87 644.12,-680.23 965.97,-1020.51l103.86 98.39 158.74 969.08 21.71 -24.24c68.34,-71.37 144.51,-123.81 228.76,-157.39 84.08,-33.58 176.16,-48.56 275.47,-44.52 97.13,3.96 191.73,27.86 283.3,70.7 91.82,42.92 180.96,105.29 266.97,185.92 89.22,84.33 157.39,175.65 204.35,273.2 47.47,98.47 73.39,203.34 77.85,313.77 3.11,109.92 -15.49,214.88 -55.8,314.27 -39.81,98.47 -101.34,191.9 -184.07,279.18 -74.32,77.94 -155.62,139.04 -243.24,182.81 -87.87,43.93 -182.47,70.62 -283.13,79.96 -101.67,9.26 -200.31,-0.76 -295.42,-30.64 -95.11,-29.88 -186.76,-79.87 -274.97,-149.9l-23.99 -18.94 17.84 -24.83zm-892.41 2797.33l-2197.31 -1211.82 180.79 -329.51 1619.43 893.33 -1104.42 -1828.25 200.48 -361.07c741.84,407.87 1484.94,814.3 2225.34,1224.61l-181.04 329.51 -1612.28 -888.54 1097.18 1823.45 -200.15 363.76 -28.03 -15.49zm-1088.01 2659.13l38.88 -168.08 -2041.19 -843.59c102.43,-445.4 206.96,-890.73 311.33,-1335.71l2122.91 495.9 49.57 -211.26 768.94 224.97 -80.29 341.97 -427.39 -99.74 -307.88 1320.56 426.97 99.65 -79.87 344.32 -789.56 -136.1 7.57 -32.91zm43919.6 4142.13c0,247.53 58.75,450.37 176.5,608.35 116.65,158.06 277.83,239.79 484.12,239.79 202.17,0 364.19,-81.72 486.31,-239.79 122.71,-155.37 184.32,-358.13 184.32,-608.35 0,-252.83 -61.61,-455.59 -184.32,-610.96 -122.12,-152.76 -284.14,-231.79 -486.31,-231.79 -206.29,0 -367.47,79.03 -484.12,231.79 -117.75,157.98 -176.5,363.43 -176.5,610.96zm-353.66 -1153.41l375.8 0 0 284.31c56.9,-89.47 148.55,-163.28 275.22,-226.49 127.76,-63.12 260.49,-94.77 398.95,-94.77 327.66,0 581.33,107.98 761.7,329.26 178.01,223.8 267.06,513.49 267.06,866.4 0,358.21 -89.05,647.91 -267.06,866.49 -175.99,215.89 -427.23,323.87 -754.71,323.87 -135.76,0 -272.36,-34.17 -410.14,-100.07 -141.65,-76.25 -230.45,-147.46 -266.22,-213.28l0 1214.09 -376.39 0 -4.21 -3249.81zm-2315.74 892.75l1268.63 5.22c-35.77,-173.72 -107.4,-313.35 -214.88,-421.42 -107.4,-107.9 -248.88,-160.59 -425.04,-160.59 -170.1,0 -309.81,52.69 -418.3,155.37 -106.13,105.38 -176.07,247.62 -210.41,421.42zm-416.03 265.96c0,-331.87 89.3,-616.26 268.32,-848.05 184.91,-229.01 443.72,-345 776.43,-345 325.22,0 580.41,105.38 765.32,318.65 181.88,213.36 272.78,474.02 272.78,779.63l0 179.02 -1693.67 0c13.47,226.49 75.92,410.9 187.86,547.83 108.99,139.55 264.62,210.75 467.71,210.75 162.44,0 292.31,-36.95 389.27,-105.38 100.07,-73.81 182.13,-184.41 246.1,-334.56l344.57 150.15c-113.29,231.79 -244.5,397.68 -393.81,492.54 -150.57,97.38 -345.92,144.77 -586.13,144.77 -335.82,0 -592.86,-113.12 -771.97,-342.3 -181.97,-231.79 -272.78,-513.49 -272.78,-848.05zm-2052.13 -805.89l0 -347.6 1631.3 0 0 347.6 -628.72 0 0 1959.38 -376.05 0 0 -1959.38 -626.53 0zm-2384.92 816.49c0,-334.56 91.07,-618.95 272.87,-848.05 178.94,-229.18 439.43,-345 781.06,-345 456.18,0 778.79,213.28 966.56,634.69l-340.2 139.55c-117.75,-287.01 -326.9,-429.25 -626.36,-434.55 -212.01,0 -376.05,79.03 -492.45,239.7 -109.08,157.98 -163.28,358.21 -163.28,608.35 0,247.53 54.2,450.37 163.28,605.74 113.2,160.59 277.24,242.23 492.45,242.23 299.46,0 509.88,-144.85 630.74,-434.46l335.82 144.77c-185.16,421.33 -507.27,632.08 -966.56,626.78 -338.68,0 -597.58,-113.12 -776.6,-342.3 -182.05,-231.79 -273.2,-513.49 -273.2,-848.05l-4.12 10.6zm-1955.67 481.93c0,110.51 32.07,200.06 95.86,263.35 63.71,65.82 158.57,97.38 283.89,97.38 172.29,0 323.62,-57.91 452.64,-176.41 128.02,-115.9 192.49,-295 192.49,-539.84l0 -50.16 -417.88 0c-198.04,0 -346.59,36.86 -446.67,105.38 -107.14,71.12 -160.34,171.19 -160.34,300.3zm-402.9 0l4.63 0c0,-245.01 93.26,-432.02 279.77,-558.44 190.05,-129.03 444.98,-194.84 766.58,-194.84l376.81 0 0 -102.77c0,-315.96 -170.1,-473.94 -509.54,-473.94 -118.51,0 -223.8,31.56 -314.7,94.77 -89.05,71.12 -144.01,160.67 -164.8,271.27l-337.93 -79.03c26.6,-194.93 116.32,-350.21 269.67,-466.11 145.61,-113.29 327.57,-171.19 546.15,-171.19 267.06,0 481.93,71.12 643.7,215.97 161.93,139.55 243.32,358.13 243.32,655.74l0 1469.53 -304.51 0 -58.92 -318.65c-173.3,242.4 -415.36,360.82 -725.51,355.52 -214.2,0 -385.06,-57.91 -513.33,-171.19 -134.08,-115.81 -201.41,-292.31 -201.41,-526.62zm-2807.94 660.95l0 -347.6c152.17,0 261.92,-34.26 328.84,-100.07 73.31,-68.51 116.49,-176.41 129.87,-321.34l149.9 -1537.96 1512.46 0 0 2306.98 -375.8 0 0 -1959.38 -824.91 0 -138.54 1330.07c-21.55,218.49 -93.68,379.17 -216.98,479.24 -130.63,100.07 -318.65,150.07 -564.84,150.07zm-2107.68 0l0 -2306.98 375.8 0 0 966.56 899.65 -966.56 494.31 0 -979.94 1058.72 1053.92 1248.26 -490.1 0 -977.84 -1158.79 0 1158.79 -375.8 0zm23719.75 -8113.99l304.43 0c0,55.3 19.78,94.85 60.35,126.5 40.48,34.09 87.7,49.91 141.65,49.91 58.75,0 107.98,-15.82 148.22,-49.91 36.19,-31.65 54.62,-71.2 54.62,-126.5l304.09 0c0,142.16 -46.8,260.66 -140.89,355.52 -97.88,97.38 -219.84,147.46 -366.04,147.46 -138.28,0 -259.15,-50.08 -361.83,-147.46 -96.62,-97.46 -144.6,-215.97 -144.6,-355.52zm-411.57 3210.33l0 -2309.76 375.8 0 0 1703.93 1065.79 -1703.93 395.24 0 0 2309.76 -375.97 0 0 -1706.54 -1063.77 1706.54 -397.09 0zm-1212.74 2.69l0 -2307.15 375.8 0 0 2307.15 -375.8 0zm-1705.28 -353.08l423.77 5.3c169.34,0 291.8,-28.95 367.55,-86.86 76.42,-55.21 114.8,-147.46 114.8,-279.18 0,-131.64 -38.38,-223.8 -114.8,-279.18 -71.63,-57.91 -193.75,-86.86 -367.55,-86.86l-423.77 0 0 726.77zm-375.88 350.38l0 -2304.46 375.88 0 0 879.7 516.36 0c240.46,0 428.82,63.21 565.26,189.63 133.49,129.03 200.31,302.91 200.31,521.41 0,215.97 -66.58,389.77 -199.47,521.49 -131.47,126.42 -319.24,192.23 -562.82,192.23l-895.52 0zm-2602.15 0l0 -2309.76 375.8 0 0 906.04 993.66 0 0 -906.04 375.88 0 0 2309.76 -375.88 0 0 -1053.5 -993.66 0 0 1053.5 -375.8 0zm-1933.03 -350.38l490.6 0c256.03,0 384.22,-115.73 384.22,-347.52 0,-234.32 -128.18,-352.99 -384.22,-352.99l-490.6 0 0 700.51zm0 -1048.03l490.6 2.61c96.62,0 170.94,-23.65 223.04,-71.12 55.04,-49.99 82.99,-118.51 82.99,-208.06 0,-89.55 -27.94,-157.98 -82.99,-210.75 -59.51,-47.3 -133.82,-71.04 -223.04,-71.04l-490.6 0 0 558.36zm-393.98 1398.41l4.71 -2304.46 896.2 0c197.03,0 356.02,50.16 476.88,152.84 125.41,102.6 188.62,242.23 188.62,418.72 0,205.45 -87.11,363.34 -261.76,471.41 238.61,121.11 357.96,305.44 357.96,558.27 0,200.15 -70.19,368.73 -211.26,505.67 -140.14,131.72 -318.9,197.54 -537.23,197.54l-914.12 0zm-2693.89 0l0 -2309.76 375.8 0 0 1703.93 1067.39 -1703.93 393.98 0 0 2309.76 -376.14 0 0 -1706.54 -1064.95 1706.54 -396.08 0zm-2224.08 -1961.99l0 -347.77 1630.96 0 0 347.77 -628.38 0 0 1961.99 -376.05 0 0 -1961.99 -626.53 0zm-1877.15 1298.26c0,110.68 32.07,200.23 95.53,263.44 63.8,65.82 158.57,97.38 283.89,97.38 172.2,0 323.7,-57.91 452.98,-176.41 128.35,-113.2 192.32,-294.92 192.32,-539.92l0 -49.99 -417.71 0c-197.96,0 -346.76,36.86 -446.67,107.98 -107.14,68.43 -160.34,168.5 -160.34,297.53zm-402.9 0l4.63 0c0,-244.84 93,-431.85 279.77,-558.27 190.13,-129.03 445.32,-194.84 766.58,-194.84l376.64 0 0 -100.07c0,-318.65 -170.1,-476.71 -509.29,-476.71 -118.93,0 -223.96,31.65 -315.03,94.85 -88.96,71.04 -143.84,160.59 -164.71,271.18l-337.76 -78.95c26.6,-192.23 116.4,-347.77 269.67,-466.19 145.69,-113.2 327.57,-171.11 546.4,-171.11 266.55,0 481.68,73.64 643.45,218.58 161.93,136.85 242.99,355.52 242.99,655.74l0 1469.53 -304.17 0 -58.92 -318.65c-173.38,239.62 -415.27,358.13 -725.59,352.91 -214.12,0 -385.06,-55.38 -513.24,-171.19 -134.08,-115.81 -201.41,-289.7 -201.41,-526.79zm-2156.75 -758.33l1268.38 5.22c-35.85,-173.8 -107.48,-313.52 -214.62,-421.42 -107.4,-107.98 -249.21,-160.59 -425.04,-160.59 -170.1,0 -309.48,52.6 -418.56,157.98 -105.88,105.29 -175.82,244.92 -210.16,418.81zm-416.28 265.96c0,-331.87 89.55,-613.65 268.57,-848.05 184.91,-229.1 443.72,-342.39 776.43,-342.39 324.88,0 580.07,105.29 765.32,316.04 181.88,213.28 272.78,474.02 272.78,779.63l0 179.02 -1693.92 0c13.47,229.1 76.17,410.81 188.11,547.75 108.74,139.63 264.87,210.67 467.71,210.67 162.78,0 292.31,-36.95 389.18,-105.29 100.07,-73.73 181.97,-184.41 246.27,-334.47l344.41 150.07c-113.2,234.4 -244.67,397.68 -393.98,492.54 -150.32,97.38 -345.75,144.85 -585.88,144.85 -335.82,0 -592.86,-113.29 -772.22,-342.47 -181.71,-229.1 -272.78,-513.49 -272.78,-847.89zm-2230.64 -5.3c0,247.53 58.66,450.29 176.33,608.35 116.74,157.98 277.92,239.62 484.12,239.62 202.25,0 364.27,-81.64 486.48,-239.62 122.71,-155.37 184.32,-358.13 184.32,-608.35 0,-250.14 -61.61,-455.59 -184.32,-608.35 -122.21,-155.45 -284.23,-234.4 -486.48,-234.4 -206.21,0 -367.38,78.95 -484.12,234.4 -117.66,158.06 -176.33,360.73 -176.33,608.35zm-353.75 -1153.49l375.88 0 0 284.4c56.81,-86.94 148.47,-163.28 275.22,-226.49 127.68,-63.21 260.41,-94.85 398.95,-94.85 327.66,0 581.16,110.59 761.53,329.26 178.09,223.88 267.14,513.58 267.14,866.49 0,360.73 -89.05,647.82 -267.14,866.4 -175.82,215.97 -427.14,323.95 -754.71,323.95 -135.59,0 -272.28,-34.26 -410.06,-100.07 -141.65,-76.42 -230.36,-144.85 -266.3,-210.75l0 1211.57 -375.8 0 -4.71 -3249.89z"></path> </g> </g> </svg> 