<?xml version="1.0" encoding="utf-8"?>
<!-- Generator: Adobe Illustrator 17.0.0, SVG Export Plug-In . SVG Version: 6.00 Build 0)  -->
<!DOCTYPE svg PUBLIC "-//W3C//DTD SVG 1.1//EN" "http://www.w3.org/Graphics/SVG/1.1/DTD/svg11.dtd">
<svg version="1.1"
	 id="svg390" xmlns:cc="http://creativecommons.org/ns#" xmlns:rdf="http://www.w3.org/1999/02/22-rdf-syntax-ns#" xmlns:svg="http://www.w3.org/2000/svg" xmlns:dc="http://purl.org/dc/elements/1.1/"
	 xmlns="http://www.w3.org/2000/svg" xmlns:xlink="http://www.w3.org/1999/xlink" x="0px" y="0px" width="133.333px" height="121px"
	 viewBox="80.14 53.778 133.333 121" enable-background="new 80.14 53.778 133.333 121" xml:space="preserve">
<path id="path2" fill="none" stroke="#1B1918" stroke-width="0.5905" stroke-linecap="round" stroke-linejoin="round" d="
	M127.303,146.221h-3.186l0.029,26.025c6.444-0.398,12.888-0.795,19.332-1.193c2.913,1.5,5.356,1.495,8.034,0.126l19.331,1.757
	l0.164-26.471l-3.386-0.047"/>
<path id="path4" fill="#1B1918" stroke="#1B1918" stroke-width="0.2952" stroke-linejoin="round" d="M133.195,86.023
	c1.291-6.4,6.669-10.241,11.6-11.146c1.222-0.251,1.452,0.396,1.74-5.504c0.372,5.058,0.21,4.959,1.675,5.543
	c5.15,0.782,10.107,4.616,11.095,11.187C149.772,80.756,142.91,80.569,133.195,86.023z"/>
<path id="path6" fill="none" stroke="#1B1918" stroke-width="0.4184" stroke-linecap="round" stroke-linejoin="round" d="
	M131.35,89.379c4.833-8.053,25.551-7.903,29.806,0.424 M131.35,90.668c4.833-8.053,25.551-7.903,29.806,0.424 M131.35,92.342
	c4.833-8.053,25.551-7.903,29.806,0.424 M131.35,94.016c4.833-8.053,25.551-7.903,29.806,0.424"/>
<path id="path14" fill="none" stroke="#1B1918" stroke-width="0.2965" d="M118.611,107.313v4.76h2.783v-4.76H118.611z"/>
<path id="path16" fill="#1B1918" stroke="#1B1918" stroke-width="0.2952" d="M120.12,107.313v4.76h1.274v-4.76H120.12z
	 M118.052,112.916h3.795v0.262l-0.507,0.012l-0.048,0.393h-3.24V112.916z"/>
<path id="path20" fill="none" stroke="#1B1918" stroke-width="0.5882" stroke-linecap="round" stroke-linejoin="round" d="
	M132.536,103.447c6.959-4.347,20.71-4.333,27.751,0.198"/>
<path id="path22" fill="#1B1918" stroke="#1B1918" stroke-width="0.2952" stroke-linecap="round" stroke-linejoin="round" d="
	M146.726,98.527v-5.494l0.484-0.484l0.04-1.977l0.323-0.363v-1.25c-0.887-0.364-1.775-0.437-2.662,0v1.25l0.323,0.363l0.04,1.977
	l0.484,0.484v5.494l-0.5,0.032l-0.004,0.962h1.98l0.005-0.953L146.726,98.527z"/>
<path id="path24" fill="none" stroke="#1B1918" stroke-width="0.2952" d="M141.042,99.077v-5.57
	c1.012-1.882,2.748-1.392,3.568-0.073v5.423L141.042,99.077z"/>
<path id="path26" fill="#1B1918" stroke="#1B1918" stroke-width="0.2952" d="M144.61,93.435v5.423l-1.784,0.11l-0.018-4.417
	C142.85,93.426,143.208,93.324,144.61,93.435L144.61,93.435z"/>
<path id="path28" fill="none" stroke="#1B1918" stroke-width="0.2807" d="M134.942,100.649v-5.57c0.843-2.09,2.29-1.958,2.973-0.808
	v5.423L134.942,100.649z"/>
<path id="path30" fill="#1B1918" stroke="#1B1918" stroke-width="0.1407" stroke-linecap="round" d="M137.915,94.272v5.423
	l-1.486,0.477l-0.015-4.413C136.449,94.626,136.747,94.45,137.915,94.272z"/>
<path id="path32" fill="none" stroke="#1B1918" stroke-width="0.2811" d="M148.428,98.992v-5.57c0.843-1.699,2.29-0.895,2.973,0.572
	v5.423L148.428,98.992z"/>
<path id="path34" fill="#1B1918" stroke="#1B1918" stroke-width="0.14" stroke-linecap="round" d="M151.401,93.994v5.423
	l-1.486-0.213l-0.015-4.42C149.935,93.668,150.233,93.63,151.401,93.994z"/>
<path id="path36" fill="none" stroke="#1B1918" stroke-width="0.279" d="M154.046,100.207v-5.57c0.668-1.61,1.815-0.653,2.356,0.887
	v5.423L154.046,100.207z"/>
<path id="path38" fill="#1B1918" stroke="#1B1918" stroke-width="0.14" stroke-linecap="round" d="M156.401,95.524v5.423
	l-1.178-0.37l-0.012-4.422C155.239,95.042,155.476,95.036,156.401,95.524L156.401,95.524z"/>
<path id="path40" fill="#1B1918" stroke="#1B1918" stroke-width="0.2952" stroke-linecap="round" stroke-linejoin="round" d="
	M139.879,99.029v-5.494l0.402-0.571l0.033-1.984l0.268-0.421v-1.251c-0.736-0.204-1.472-0.117-2.209,0.48v1.25l0.268,0.305
	l0.033,1.969l0.402,0.397v5.494l-0.415,0.122l-0.003,0.962l1.643-0.357l0.004-0.954L139.879,99.029z"/>
<path id="path42" fill="#1B1918" stroke="#1B1918" stroke-width="0.2954" stroke-linecap="round" stroke-linejoin="round" d="
	M153.145,99.286v-5.494l0.365-0.382l0.03-1.968l0.243-0.295v-1.25c-0.669-0.552-1.338-0.812-2.007-0.563v1.251l0.243,0.431
	l0.03,1.985l0.365,0.587v5.494l-0.377-0.074l-0.003,0.961l1.493,0.419l0.004-0.952L153.145,99.286z"/>
<path id="path44" fill="#1B1918" stroke="#1B1918" stroke-width="0.2952" stroke-linecap="round" stroke-linejoin="round" d="
	M159.02,104.756c0,0.815,0,1.63,0,2.446c-9.811-3.8-15.191-3.81-25.679,0v-2.447C140.233,101.098,152.496,101.191,159.02,104.756
	L159.02,104.756z"/>
<path id="path46" fill="none" stroke="#1B1918" stroke-width="0.2965" d="M118.611,116.937v4.76h2.783v-4.76H118.611z"/>
<path id="path48" fill="#1B1918" stroke="#1B1918" stroke-width="0.2952" d="M120.12,116.937v4.76h1.274v-4.76H120.12z
	 M118.052,122.54h3.795v0.262l-0.507,0.012l-0.048,0.393h-3.24V122.54z"/>
<path id="path52" fill="none" stroke="#1B1918" stroke-width="0.2965" d="M118.611,125.724v4.76h2.783v-4.76H118.611z"/>
<path id="path54" fill="#1B1918" stroke="#1B1918" stroke-width="0.2952" d="M120.12,125.724v4.76h1.274v-4.76H120.12z
	 M118.052,131.327h3.795v0.262l-0.507,0.012l-0.048,0.393h-3.24V131.327z"/>
<path id="path58" fill="none" stroke="#1B1918" stroke-width="0.2914" d="M112.393,108.199v4.76l2.373-0.403v-4.76L112.393,108.199z
	"/>
<path id="path60" fill="#1B1918" stroke="#1B1918" stroke-width="0.2859" d="M113.68,107.981v4.76l1.087-0.184v-4.76L113.68,107.981
	z M111.916,113.883l3.236-0.549v0.262l-0.433,0.086l-0.041,0.399l-2.762,0.469V113.883z"/>
<path id="path64" fill="none" stroke="#1B1918" stroke-width="0.2878" d="M106.856,109.638v4.76l2.097-0.56v-4.76L106.856,109.638z"
	/>
<path id="path66" fill="#1B1918" stroke="#1B1918" stroke-width="0.2816" d="M107.993,109.334v4.76l0.96-0.257v-4.76
	L107.993,109.334z M106.435,115.354l2.859-0.764v0.262l-0.382,0.115l-0.036,0.402l-2.441,0.652L106.435,115.354z"/>
<path id="path70" fill="none" stroke="#1B1918" stroke-width="0.2878" d="M106.856,118.843v4.76l2.097-0.56v-4.76L106.856,118.843z"
	/>
<path id="path72" fill="#1B1918" stroke="#1B1918" stroke-width="0.2816" d="M107.993,118.539v4.76l0.96-0.256v-4.76
	L107.993,118.539z M106.435,124.559l2.859-0.764v0.262l-0.382,0.115l-0.036,0.402l-2.441,0.652L106.435,124.559z"/>
<path id="path76" fill="none" stroke="#1B1918" stroke-width="0.2914" d="M112.393,117.823v4.76l2.373-0.403v-4.76L112.393,117.823z
	"/>
<path id="path78" fill="#1B1918" stroke="#1B1918" stroke-width="0.2859" d="M113.68,117.605v4.76l1.087-0.184v-4.76L113.68,117.605
	z M111.916,123.507l3.236-0.549v0.262l-0.433,0.086l-0.041,0.399l-2.762,0.469V123.507z"/>
<path id="path82" fill="none" stroke="#1B1918" stroke-width="0.2914" d="M112.393,126.61v4.76l2.373-0.403v-4.76L112.393,126.61z"
	/>
<path id="path84" fill="#1B1918" stroke="#1B1918" stroke-width="0.2859" d="M113.68,126.392v4.76l1.087-0.184v-4.76L113.68,126.392
	z"/>
<path id="path86" fill="#1B1918" stroke="#1B1918" stroke-width="0.2952" stroke-linecap="round" stroke-linejoin="round" d="
	M158.755,92.578c-0.4-0.511-0.965-0.817-1.624-0.988l-0.053,1.104l0.418,0.305l-0.012,8.575l0.848,0.307l-0.071-8.621l0.482-0.085
	L158.755,92.578z"/>
<path id="path88" fill="none" stroke="#1B1918" stroke-width="0.2952" d="M118.486,100.799l-0.02-3.964
	c0.296-1.887,3.272-1.896,3.635-0.014v3.988L118.486,100.799z"/>
<path id="path90" fill="#1B1918" stroke="#1B1918" stroke-width="0.2952" d="M121.976,96.446c-1.097-0.101-2.057,0.582-2.1,1.357
	l-0.008,3l2.232,0.006V96.82L121.976,96.446z"/>
<path id="path92" fill="#1B1918" d="M118.066,100.876v0.595h4.224v-0.595H118.066z"/>
<path id="path94" fill="none" stroke="#1B1918" stroke-width="0.2772" d="M112.49,101.424l-0.014-3.46
	c0.209-1.713,2.311-2.363,2.568-0.796v3.485L112.49,101.424z"/>
<path id="path96" fill="#1B1918" stroke="#1B1918" stroke-width="0.2772" d="M114.955,96.867c-0.775,0.148-1.453,0.952-1.483,1.638
	l-0.006,2.623l1.577-0.476v-3.485L114.955,96.867z"/>
<path id="path98" fill="#1B1918" d="M112.193,101.581v0.52l2.983-0.91v-0.52L112.193,101.581z"/>
<path id="path100" fill="#1B1918" stroke="#1B1918" stroke-width="0.2952" stroke-linecap="round" stroke-linejoin="round" d="
	M150.372,106.696h0.941v25.89h-0.941V106.696z M143.677,106.696h0.941v25.89h-0.941V106.696z"/>
<path id="path104" fill="#1B1918" d="M136.982,107.155l0.623-0.161v25.593l-0.623,0.004V107.155z M138.872,107.155l0.406-0.161
	v25.593l-0.406,0.004V107.155z"/>
<path id="path108" fill="#1B1918" stroke="#1B1918" stroke-width="0.2947" stroke-linecap="round" stroke-linejoin="round" d="
	M157.913,108.265l0.514,0.209v24.53h-0.514V108.265z"/>
<path id="path110" fill="#1B1918" d="M136.083,108.732v24.085l-0.918,0.071l0.141-23.732L136.083,108.732z"/>
<path id="path112" fill="none" stroke="#1B1918" stroke-width="0.2952" d="M141.027,107.108v25.568"/>
<path id="path114" fill="#1B1918" d="M145.759,105.695v27.334h0.362v-27.334H145.759z"/>
<path id="path116" fill="none" stroke="#1B1918" stroke-width="0.2952" d="M147.101,116.784l-0.071,14.832 M148.09,106.543
	l-0.071,25.498"/>
<path id="path120" fill="#1B1918" d="M152.893,106.825v25.78h0.283v-25.78L152.893,106.825z M155.789,107.32v25.286l0.424,0.21
	V107.53L155.789,107.32z"/>
<path id="path124" fill="none" stroke="#1B1918" stroke-width="0.2965" d="M171.334,107.731v4.76h2.783v-4.76H171.334z"/>
<path id="path126" fill="#1B1918" stroke="#1B1918" stroke-width="0.2952" d="M172.843,107.731v4.76h1.274v-4.76H172.843z
	 M170.775,113.335h3.795v0.262l-0.507,0.012l-0.048,0.393h-3.24L170.775,113.335z"/>
<path id="path130" fill="none" stroke="#1B1918" stroke-width="0.2965" d="M171.334,117.355v4.76h2.783v-4.76H171.334z"/>
<path id="path132" fill="#1B1918" stroke="#1B1918" stroke-width="0.2952" d="M172.843,117.355v4.76h1.274v-4.76H172.843z
	 M170.775,122.958h3.795v0.262l-0.507,0.012l-0.048,0.393h-3.24L170.775,122.958z"/>
<path id="path136" fill="none" stroke="#1B1918" stroke-width="0.2965" d="M171.334,127.816v4.76h2.783v-4.76L171.334,127.816z"/>
<path id="path138" fill="#1B1918" stroke="#1B1918" stroke-width="0.2952" d="M172.843,127.816v4.76h1.274v-4.76L172.843,127.816z"
	/>
<path id="path140" fill="none" stroke="#1B1918" stroke-width="0.2965" d="M178.348,108.66v4.76l2.119,0.436v-4.76L178.348,108.66z"
	/>
<path id="path142" fill="#1B1918" stroke="#1B1918" stroke-width="0.2952" d="M179.497,108.897v4.76l0.97,0.2v-4.76L179.497,108.897
	z M177.922,114.176l2.889,0.595v0.262l-0.386-0.067l-0.036,0.385l-2.467-0.508L177.922,114.176z"/>
<path id="path146" fill="none" stroke="#1B1918" stroke-width="0.2965" d="M178.348,117.866v4.76l2.119,0.436v-4.76L178.348,117.866
	z"/>
<path id="path148" fill="#1B1918" stroke="#1B1918" stroke-width="0.2952" d="M179.497,118.103v4.76l0.97,0.2v-4.76L179.497,118.103
	z M177.922,123.382l2.889,0.595v0.262l-0.386-0.067l-0.036,0.385l-2.467-0.508L177.922,123.382z"/>
<path id="path152" fill="none" stroke="#1B1918" stroke-width="0.2965" d="M178.348,127.908v4.76l2.119,0.179v-4.76L178.348,127.908
	z"/>
<path id="path154" fill="#1B1918" stroke="#1B1918" stroke-width="0.2952" d="M179.497,128.005v4.76l0.97,0.082v-4.76
	L179.497,128.005z"/>
<path id="path156" fill="none" stroke="#1B1918" stroke-width="0.2965" d="M183.825,110.334v4.76l2.041,0.436v-4.76L183.825,110.334
	z"/>
<path id="path158" fill="#1B1918" stroke="#1B1918" stroke-width="0.2952" d="M184.932,110.571v4.76l0.934,0.2v-4.76
	L184.932,110.571z M183.415,115.85l2.783,0.595v0.262l-0.372-0.067l-0.035,0.385l-2.376-0.508V115.85z"/>
<path id="path162" fill="none" stroke="#1B1918" stroke-width="0.2965" d="M183.825,119.121v4.76l2.041,0.436v-4.76L183.825,119.121
	z"/>
<path id="path164" fill="#1B1918" stroke="#1B1918" stroke-width="0.2952" d="M184.932,119.358v4.76l0.934,0.2v-4.76
	L184.932,119.358z M183.415,124.637l2.783,0.595v0.262l-0.372-0.067l-0.035,0.385l-2.376-0.508V124.637z"/>
<path id="path168" fill="#1B1918" d="M154.493,107.231v25.438h0.704v-25.438L154.493,107.231z"/>
<path id="path170" fill="#1B1918" stroke="#1B1918" stroke-width="0.216" stroke-linecap="round" stroke-linejoin="round" d="
	M125.157,92.372v1.446l0.407,0.276v-1.446L125.157,92.372z M126.307,93.019v1.446l0.407,0.276v-1.446L126.307,93.019z
	 M127.562,93.856v1.446l0.407,0.276v-1.446L127.562,93.856z M128.818,94.692v1.33l0.407,0.254v-1.33L128.818,94.692z
	 M130.073,95.529v1.215l0.407,0.232v-1.215L130.073,95.529z"/>
<path id="path180" fill="#1B1918" d="M122.934,94.502v6.148h1.012v-6.148H122.934z M124.199,101.8v-0.91h-1.506v0.91H124.199z
	 M116.563,94.46v6.148h1.012V94.46H116.563z M117.828,101.758v-0.91h-1.506v0.91H117.828z M110.388,96.58v5.753l0.841-0.3V96.28
	L110.388,96.58z M111.44,103.034v-0.852l-1.253,0.447v0.852L111.44,103.034z"/>
<path id="path192" fill="#1B1918" stroke="#1B1918" stroke-width="0.2952" stroke-linecap="round" stroke-linejoin="round" d="
	M132.948,93.015c0.4-0.484,0.965-0.774,1.624-0.936l0.053,1.046l-0.418,0.289l0.012,8.126l-0.848,0.291l0.071-8.17l-0.482-0.081
	L132.948,93.015z"/>
<path id="path194" fill="none" stroke="#1B1918" stroke-width="1.0001" stroke-linecap="round" stroke-linejoin="round" d="
	M188.191,107.971l-11.495-2.947h-8.052l-2.825,1.377h-5.968 M188.128,106.57l-11.397-3.418h-8.405l-2.507,1.994h-5.968"/>
<path id="path196" fill="none" stroke="#1B1918" stroke-width="1.0001" d="M159.892,115.872v-8.237h5.088v8.237H159.892z"/>
<path id="path198" fill="#1B1918" stroke="#1B1918" stroke-width="1.0001" d="M161.498,108.382v7.491h3.482v-7.491H161.498z
	 M159.892,115.872v0.796h5.104v-0.796H159.892z"/>
<path id="path202" fill="none" stroke="#1B1918" stroke-width="1.0001" d="M159.884,117.853v14.367h4.735v-14.367H159.884z"/>
<path id="path204" fill="#1B1918" stroke="#1B1918" stroke-width="1.0001" d="M161.337,118.552v13.668h3.282v-13.668H161.337z
	 M159.884,132.22v0.861h4.789v-0.861H159.884z"/>
<path id="path208" fill="none" stroke="#1B1918" stroke-width="1.0001" d="M127.673,116.291v-8.237h5.088v8.237H127.673z"/>
<path id="path210" fill="#1B1918" stroke="#1B1918" stroke-width="1.0001" d="M129.279,108.8v7.491h3.482V108.8H129.279z
	 M127.673,116.291v0.796h5.104v-0.796H127.673z"/>
<path id="path214" fill="none" stroke="#1B1918" stroke-width="1.0001" d="M127.665,118.271v14.367h4.735v-14.367L127.665,118.271z"
	/>
<path id="path216" fill="#1B1918" stroke="#1B1918" stroke-width="1.0001" d="M129.118,118.97v13.668h3.282V118.97L129.118,118.97z
	 M127.665,132.638v0.861h4.789v-0.861H127.665z"/>
<path id="path220" fill="none" stroke="#1B1918" stroke-width="1.0001" stroke-linecap="round" stroke-linejoin="round" d="
	M132.043,106.176h-4.79l-2.576-1.582h-8.631l-10.936,2.621 M132.043,104.685h-4.835l-2.666-2.124h-8.315l-10.891,2.937"/>
<path id="path224" fill="#1B1918" stroke="#1B1918" stroke-width="1.0001" d="M122.663,107.602v22.673h0.989v-22.673
	L122.663,107.602z"/>
<path id="path226" fill="#1B1918" d="M122.302,107.333h1.86v-0.731h0.399v-1.13h-2.724v1.03h0.465V107.333z M122.313,130.668
	l1.679,0.027v0.936l0.468,0.413v1.404h-2.533v-1.487c0.055-0.027,0.11-0.055,0.165-0.083l0.027-0.027l0.055-0.027h0.027h0.028
	v-0.028c0,0,0.083-0.083,0.11-0.083L122.313,130.668z"/>
<path id="path230" fill="#1B1918" stroke="#1B1918" stroke-width="1.0001" d="M115.968,107.602v22.673h0.989v-22.673
	L115.968,107.602z"/>
<path id="path232" fill="#1B1918" d="M115.608,107.333h1.86v-0.731h0.399v-1.13h-2.724v1.03h0.465V107.333z M115.618,130.668
	l1.679,0.027v0.936l0.468,0.413v1.404h-2.533v-1.487c0.055-0.027,0.11-0.055,0.165-0.083l0.027-0.027l0.055-0.027h0.027h0.028
	v-0.028c0,0,0.083-0.083,0.11-0.083L115.618,130.668z"/>
<path id="path236" fill="#1B1918" stroke="#1B1918" stroke-width="1.0001" d="M110.233,108.747v22.069l0.762-0.19v-22.069
	L110.233,108.747z"/>
<path id="path238" fill="#1B1918" d="M109.955,108.554l1.434-0.357v-0.711l0.307-0.077v-1.1l-2.099,0.523v1.003l0.358-0.089V108.554
	z"/>
<path id="path240" fill="#1B1918" stroke="#1B1918" stroke-width="1.0001" d="M104.872,109.32v15.888l0.617-0.137v-15.888
	L104.872,109.32z"/>
<path id="path242" fill="#1B1918" d="M104.648,109.181l1.16-0.257v-0.512l0.249-0.055v-0.791l-1.699,0.377v0.722l0.29-0.064
	L104.648,109.181z"/>
<path id="path244" fill="#1B1918" stroke="#1B1918" stroke-width="1.0001" d="M169.24,108.226v22.673h0.989v-22.673H169.24z"/>
<path id="path246" fill="#1B1918" d="M168.88,107.957h1.861v-0.731h0.399v-1.13h-2.724v1.03h0.465V107.957z M168.89,131.292
	l1.68,0.028v0.936l0.468,0.413v1.404h-2.533v-1.487c0.055-0.028,0.11-0.055,0.165-0.083l0.027-0.028l0.055-0.027h0.027h0.027v-0.027
	c0,0,0.083-0.083,0.11-0.083L168.89,131.292z"/>
<path id="path250" fill="#1B1918" stroke="#1B1918" stroke-width="1.0001" d="M175.454,108.226v22.673h0.989v-22.673H175.454z"/>
<path id="path252" fill="#1B1918" d="M175.094,107.957h1.861v-0.731h0.399v-1.13h-2.724v1.03h0.465V107.957z M175.104,131.292
	l1.68,0.028v0.936l0.468,0.413v1.404h-2.533v-1.487c0.055-0.028,0.11-0.055,0.165-0.083l0.027-0.028l0.055-0.027h0.027h0.027v-0.027
	c0,0,0.083-0.083,0.11-0.083L175.104,131.292z"/>
<path id="path256" fill="#1B1918" stroke="#1B1918" stroke-width="1.0001" d="M181.695,109.132v22.673l0.92,0.232v-22.673
	L181.695,109.132z"/>
<path id="path258" fill="#1B1918" d="M181.36,108.778l1.731,0.437v-0.731l0.371,0.094v-1.13l-2.534-0.64v1.03l0.433,0.109V108.778z"
	/>
<path id="path260" fill="#1B1918" stroke="#1B1918" stroke-width="1.0001" d="M186.825,110.174v15.63l0.72,0.16v-15.63
	L186.825,110.174z"/>
<path id="path262" fill="#1B1918" d="M186.562,109.853l1.355,0.397v-0.664l0.29,0.085v-1.026l-1.985-0.581v0.936l0.339,0.099
	V109.853z M124.548,133.922v0.856h-8.522v-0.856H124.548z M115.501,133.922v0.467l-4.981,0.221v-0.467L115.501,133.922z
	 M168.126,134.554v0.521h8.556v-0.521H168.126z M182.111,134.554v0.869h-5.125v-0.869H182.111z M127.745,139.027v0.69h37.533v-0.69
	H127.745z"/>
<path id="path274" fill="#1B1918" stroke="#1B1918" stroke-width="1.0001" d="M133.582,137.999v-0.251h27.051v0.251H133.582z"/>
<path id="path276" fill="#1B1918" d="M132.39,134.375v-0.613h29.186v0.613H132.39z M132.419,136.351v-0.613h29.186v0.613H132.419z"
	/>
<path id="path280" fill="none" stroke="#1B1918" stroke-width="0.2952" d="M171.208,101.217l-0.02-3.964
	c0.296-1.887,3.272-1.897,3.635-0.014v3.988L171.208,101.217z"/>
<path id="path282" fill="#1B1918" stroke="#1B1918" stroke-width="0.2952" d="M174.699,96.864c-1.097-0.101-2.057,0.582-2.1,1.357
	l-0.008,3l2.232,0.006v-3.988L174.699,96.864z"/>
<path id="path284" fill="#1B1918" d="M170.788,101.294v0.595h4.224v-0.595H170.788z"/>
<path id="path286" fill="none" stroke="#1B1918" stroke-width="0.2879" d="M177.773,101.83l-0.017-3.869
	c0.245-1.772,2.715-1.105,3.016,0.813v3.888L177.773,101.83z"/>
<path id="path288" fill="#1B1918" stroke="#1B1918" stroke-width="0.2879" d="M180.669,98.38c-0.91-0.348-1.706,0.1-1.742,0.845
	l-0.006,2.923l1.852,0.513v-3.888L180.669,98.38z"/>
<path id="path290" fill="#1B1918" d="M177.424,101.81v0.58l3.504,0.961v-0.58L177.424,101.81z"/>
<path id="path292" fill="none" stroke="#1B1918" stroke-width="0.2794" d="M183.101,103.549l-0.015-3.755
	c0.221-1.72,2.451-1.072,2.723,0.789v3.773L183.101,103.549z"/>
<path id="path294" fill="#1B1918" stroke="#1B1918" stroke-width="0.2794" d="M185.715,100.2c-0.822-0.338-1.54,0.097-1.572,0.82
	l-0.006,2.837l1.672,0.498v-3.773L185.715,100.2z"/>
<path id="path296" fill="#1B1918" d="M182.786,103.529v0.563l3.163,0.932v-0.563L182.786,103.529z M127.117,102.968v0.723h4.338
	v-0.723H127.117z"/>
<path id="path300" fill="#1B1918" stroke="#1B1918" stroke-width="1.0001" d="M130.507,102.658v-1.967l-1.506-0.67l0.042,2.05
	l-0.949,0.006v0.305h1.45v0.267L130.507,102.658z"/>
<path id="path302" fill="#1B1918" d="M161.01,103.386v0.723h4.338v-0.723H161.01z"/>
<path id="path304" fill="#1B1918" stroke="#1B1918" stroke-width="1.0001" d="M164.4,103.076v-1.967l-1.506-0.67l0.042,2.05
	l-0.949,0.006v0.305h1.45v0.267L164.4,103.076z"/>
<path id="path306" fill="none" stroke="#1B1918" stroke-width="0.2711" d="M107.516,102.694l-0.012-3.384
	c0.173-1.675,1.91-2.311,2.122-0.778v3.409L107.516,102.694z"/>
<path id="path308" fill="#1B1918" stroke="#1B1918" stroke-width="0.2711" d="M109.554,98.237c-0.64,0.145-1.201,0.931-1.226,1.602
	l-0.004,2.566l1.303-0.466v-3.409L109.554,98.237z"/>
<path id="path310" fill="#1B1918" d="M107.271,102.848v0.508l2.465-0.89v-0.508L107.271,102.848z M105.785,98.239l0.841-0.279v5.349
	l-0.841,0.279V98.239z M106.838,104.289l-1.253,0.447v-0.852l1.253-0.447V104.289z M168.961,94.92v6.148h1.012V94.92H168.961z
	 M170.226,102.219v-0.91h-1.506v0.91H170.226z M175.656,94.92v6.148h1.012V94.92H175.656z M176.921,102.219v-0.91h-1.506v0.91
	H176.921z M181.473,96.659v6.148l0.841,0.273v-6.148L181.473,96.659z M182.525,104.298v-0.91l-1.253-0.406v0.91L182.525,104.298z
	 M186.333,98.162v6.148l0.823,0.272v-6.148L186.333,98.162z M187.362,105.801v-0.91l-1.225-0.406v0.91L187.362,105.801z"/>
<path id="path332" fill="none" stroke="#1B1918" stroke-width="1.0001" stroke-linecap="round" stroke-linejoin="round" d="
	M107.242,95.879l8.829-3.096h7.908 M132.857,96.777l-8.044-5.287h-8.586 M132.857,98.869l-8.134-4.79l-8.496-0.013l-8.993,2.802
	 M186.072,96.821l-8.415-3.209l-7.607-0.038 M161.211,96.777c2.656-1.461,5.312-2.922,7.969-4.383h8.548 M161.211,98.869
	l7.503-4.419l8.959-0.008l8.867,3.136"/>
<path id="path336" fill="#1B1918" stroke="#1B1918" stroke-width="0.216" stroke-linecap="round" stroke-linejoin="round" d="
	M167.72,93.603v1.077l-0.407,0.211v-1.077L167.72,93.603z M166.57,94.146v1.173l-0.407,0.23v-1.173L166.57,94.146z M165.314,94.844
	v1.173l-0.407,0.23v-1.173L165.314,94.844z M164.059,95.542v1.255l-0.407,0.246v-1.254L164.059,95.542z M162.804,96.24v1.237
	l-0.407,0.244v-1.237L162.804,96.24z"/>
<path id="path346" fill="#1B1918" stroke="#1B1918" stroke-width="1.0001" stroke-linecap="round" stroke-linejoin="round" d="
	M170.051,93.574v-1.181h7.677v1.181H170.051z M116.227,91.489v1.294h7.753v-1.294H116.227z"/>
<path id="path350" fill="none" stroke="#1B1918" stroke-width="0.5905" stroke-linecap="round" stroke-linejoin="round" d="
	M127.266,147.858l-0.081,21.562l3.311-4.442l0.081-21.885L127.266,147.858z M168.856,148.666l-0.242,21.32l-3.23-4.684l0.404-21.724
	L168.856,148.666z M130.577,143.094c2.584-1.023,14.536-3.176,17.443,3.23c3.338-6.245,12.41-4.173,17.766-2.746 M130.497,164.979
	c5.922-0.512,17.497-2.557,17.524,4.765c0.054-7.376,10.606-4.818,17.363-4.442 M127.186,169.42
	c5.787-0.188,11.575-0.377,17.363-0.565c2.596,1.467,5.115,1.143,6.622,0.081c5.814,0.35,11.629,0.7,17.443,1.05"/>
<path id="path360" fill="#1B1918" stroke="#1B1918" stroke-width="0.216" stroke-linecap="round" stroke-linejoin="round" d="
	M146.376,168.322c-3.184-2.278-4.512-2.638-13.199-2.566C142.754,165.503,143.791,165.036,146.376,168.322z"/>
<path id="path362" fill="none" stroke="#1B1918" stroke-width="1.0001" stroke-linecap="round" stroke-linejoin="round" d="
	M143.353,167.46c-2.803-0.646-6.441-1.193-10.029-0.834 M140.852,167.607c-2.852-0.368-5.533-0.662-9.293-0.294"/>
<path id="path366" fill="#1B1918" stroke="#1B1918" stroke-width="0.216" stroke-linecap="round" stroke-linejoin="round" d="
	M149.369,168.314c3.184-2.278,4.471-2.234,13.158-2.163C152.951,165.898,151.954,165.028,149.369,168.314z"/>
<path id="path368" fill="none" stroke="#1B1918" stroke-width="1.0001" stroke-linecap="round" stroke-linejoin="round" d="
	M152.543,167.533c2.803-0.646,5.927-0.987,9.515-0.628 M154.657,168.026c2.852-0.368,5.533-0.662,9.293-0.294"/>
<path id="path372" fill="#1B1918" stroke="#1B1918" stroke-width="0.216" stroke-linecap="round" stroke-linejoin="round" d="
	M166.32,164.457l0.169-15.93l0.395,16.833L166.32,164.457z M167.298,166.452v-14.965l0.484,15.53L167.298,166.452z M129.502,164.033
	l0.136-15.93l-0.718,16.833L129.502,164.033z M128.486,166.028l0.287-14.965l-0.782,15.53L128.486,166.028z"/>
<path id="path380" fill="none" stroke="#1B1918" stroke-width="1.1809" stroke-linecap="round" stroke-linejoin="round" d="
	M123.256,163.46c-20.575-8.594-34.954-28.2-34.954-51.006c0-20.484,11.6-38.387,28.871-48.047 M169.936,61.448
	c20.575,8.594,34.954,28.2,34.954,51.006c0,21.667-12.979,40.446-31.919,49.637"/>
<path id="path382" fill="none" stroke="#1B1918" stroke-width="1.0042" stroke-linecap="round" stroke-linejoin="round" d="
	M119.435,161.715c-2.153-8.706-7.479-12.591-12.145-19.036c1.59,2.689,1.559,8.62,3.276,13.501 M115.901,159.769
	c-2.063-4.141-3.415-8.449-6.19-12.423 M120.544,162.271c-9.925,4.264-13.13-4.017-17.163-6.71c1.866-0.17,5.051,0.471,6.074-0.212
	 M116.915,160.356c-2.228-0.29-4.587-0.581-6.685-2.174 M107.685,153.888c0.255-2.634-2.01-4.428-2.143-6.642L107.685,153.888z
	 M105.268,145.187c0.571,0,1.034,0.463,1.034,1.034s-0.463,1.034-1.034,1.034s-1.034-0.463-1.034-1.034
	S104.697,145.187,105.268,145.187z M104.36,150.806c-0.968-2.346-0.579-4.499-1.547-6.458L104.36,150.806z M102.619,141.505
	c0.606,0,1.098,0.658,1.098,1.47s-0.492,1.47-1.098,1.47s-1.098-0.658-1.098-1.47S102.013,141.505,102.619,141.505z
	 M107.204,153.475c-8.527,0.788-10.998-3.335-17.596-11.031c3.155,2.944,6.71,1.632,10.605,3.719 M105.515,151.932
	c-3.275-1.961-7.735-2.577-9.504-4.591 M98.873,144.373c2.821-20.119-0.565-11.875-0.621-21.578
	c-0.592,2.909-4.008,8.597-2.937,16.156 M97.305,142.075c-11.013-0.411-10.721-12.068-14.285-16.854
	c5.865,7.269,6.475,4.656,10.277,9.866 M95.861,139.836c-2.066,0.738-6.854-5.269-7.657-6.653 M97.542,142.527
	c-0.836-6.06,0.857-9.279,0.41-12.926 M93.555,135.57c1.076-4.07,0.175-8.027,1.195-10.515 M92.999,133.584
	c-0.791-10.715,1.832-10.277,3.107-16.212c0.621,6.511-0.622,13.955-1.356,20.562 M90.683,128.218c-0.265,0-2.429-0.913-2.429-1.299
	L90.683,128.218z M87.647,124.707c0.58,0,1.05,0.506,1.05,1.131s-0.47,1.131-1.05,1.131s-1.05-0.506-1.05-1.131
	S87.067,124.707,87.647,124.707z M93.074,118.247c0.508,0,0.921,0.535,0.921,1.195c0,0.66-0.412,1.195-0.921,1.195
	s-0.921-0.535-0.921-1.195C92.153,118.782,92.565,118.247,93.074,118.247z M90.99,129.23c1.452-1.452-0.149-7.055,1.583-8.786
	 M88.535,117.471c3.205-2.623,2.364-5.588,5.395-7.526 M88.847,119.968c-3.085-0.421-3.862-7.961-4.998-10.056 M89.264,122.705
	c-6.574-2.023-7.854-16.191-7.2-20.23c2.622,8.994,3.824,4.963,6.426,14.399 M88.312,113.422c3.053-6.375,8.041-6.715,9.818-10.829
	c-1.623,12.434-5.653,11.453-9.044,18.921L88.312,113.422z M86.226,106.004c0.544,0,0.985,0.521,0.985,1.163
	c0,0.642-0.441,1.163-0.985,1.163c-0.544,0-0.985-0.521-0.985-1.163C85.24,106.525,85.682,106.004,86.226,106.004z M88.341,110.785
	c-1.233,0-1.606-2.39-1.809-2.39 M88.643,106.445c5.747-1.176,6.374-5.869,9.98-8.159c-1.248-0.528-2.995,0.278-3.013,0.251
	 M89.647,100.482c4.687-1.864,4.357-5.348,8.159-6.967 M90.526,97.218c7.301-7.996,8.588-5.837,12.678-9.226
	c-3.703,4.765-2.073,7.72-14.122,15.252 M89.333,102.051c-2.294-3.382-0.941-7.045-2.197-9.854 M88.856,105.001
	c-5.26-4.958-3.631-13.967-0.603-19.131c-0.978,4.486,1.786,6.402,1.732,13.407 M92.767,91.054
	c-0.066-0.066-0.266-0.332-0.266-0.399v-0.066v-0.066v-0.066v-0.066v-0.066v-0.066V90.19v-0.066v-0.066V89.99v-0.066
	c0,0,0-0.199,0-0.266c0-0.066-0.133-0.133-0.133-0.199v-0.199v-0.133V89.06v-0.066v-0.133c0-0.066-0.133,0-0.133-0.133
	L92.767,91.054z M91.87,86.137c0.642,0,1.163,0.595,1.163,1.329c0,0.734-0.521,1.329-1.163,1.329c-0.642,0-1.163-0.595-1.163-1.329
	C90.707,86.732,91.228,86.137,91.87,86.137z M94.821,86.862c7.953-4.273,7.249-5.68,10.305-6.44 M94.362,87.731
	c13.427-7.774,11.349-1.09,18.738-11.96c-7.992,4.665-4.554-2.08-17.941,10.432 M95.4,85.825
	c-2.022-9.535,4.678-14.079,7.268-16.898c-3.658,3.709-3.389,11.229-3.522,11.229 M97.485,82.482c0.179-2.99-0.266-4.485,0.598-5.98
	 M104.257,74.206c1.056-7.582,5.164-10.115,7.427-11.398c-1.466,2.011-2.326,5.077-2.43,6.914 M106.956,71.669
	c0.003-2.08,1.529-3.671,1.529-5.009 M112.223,67.507c0.041-1.004,0.729-1.545,0.729-2.305L112.223,67.507z M113.364,63.321
	c0.5,0,0.905,0.463,0.905,1.035c0,0.571-0.406,1.035-0.905,1.035c-0.5,0-0.905-0.463-0.905-1.035
	C112.459,63.785,112.864,63.321,113.364,63.321z M108.173,70.592c9.36,1.202,11.155-1.855,15.7-4.582
	c-2.453-0.305-6.292-0.027-14.173,3.36 M108.907,70.009c6.426-0.106,8.193-2.185,9.255-2.363 M115.443,65.428
	c0.28-4.184,10.332-8.196,13.181-8.222c-3.395,2.574-2.42,3.864-11.454,7.187c0.835-2.204,4.488-2.577,5.743-4.08L115.443,65.428z
	 M121.061,62.823c3.608-0.948,9.666-3.968,14.405-2.981C129.945,64.6,126.618,63.994,121.061,62.823z M121.384,62.891
	c2.853-0.608,7.714-0.495,10.033-1.857 M173.774,161.715c2.152-8.706,7.479-12.591,12.145-19.036
	c-1.59,2.689-1.559,8.62-3.276,13.501 M177.309,159.769c2.063-4.141,3.415-8.449,6.19-12.423 M171.709,162.51
	c9.925,4.264,14.086-4.256,18.12-6.949c-1.866-0.17-5.051,0.471-6.074-0.212 M176.295,160.356c2.228-0.29,4.587-0.581,6.685-2.174
	 M185.524,153.888c-0.255-2.634,2.01-4.428,2.143-6.642L185.524,153.888z M187.941,145.187c-0.571,0-1.034,0.463-1.034,1.034
	s0.463,1.034,1.034,1.034c0.571,0,1.034-0.463,1.034-1.034S188.512,145.187,187.941,145.187z M188.849,150.806
	c0.968-2.346,0.579-4.499,1.547-6.458L188.849,150.806z M190.59,141.505c-0.607,0-1.098,0.658-1.098,1.47s0.492,1.47,1.098,1.47
	c0.607,0,1.098-0.658,1.098-1.47S191.196,141.505,190.59,141.505z M186.005,153.475c8.527,0.788,10.998-3.335,17.596-11.031
	c-3.155,2.944-6.709,1.632-10.605,3.719 M187.694,151.932c3.275-1.961,7.735-2.577,9.504-4.591 M194.336,144.373
	c-2.821-20.119,0.565-11.875,0.621-21.578c0.592,2.909,4.008,8.597,2.937,16.156 M195.904,142.075
	c11.013-0.411,10.721-12.068,14.285-16.854c-5.865,7.269-6.475,4.656-10.277,9.866 M197.349,139.836
	c2.066,0.738,6.854-5.269,7.657-6.653 M195.668,142.527c0.836-6.06-0.857-9.279-0.41-12.926 M199.654,135.57
	c-1.076-4.07-0.175-8.027-1.195-10.515 M200.211,133.584c0.791-10.715-1.832-10.277-3.107-16.212
	c-0.621,6.511,0.622,13.955,1.356,20.562 M202.527,128.218c0.265,0,2.429-0.913,2.429-1.299L202.527,128.218z M205.562,124.707
	c-0.58,0-1.05,0.506-1.05,1.131s0.47,1.131,1.05,1.131c0.58,0,1.05-0.506,1.05-1.131S206.142,124.707,205.562,124.707z
	 M200.135,118.247c-0.508,0-0.921,0.535-0.921,1.195c0,0.66,0.412,1.195,0.921,1.195s0.921-0.535,0.921-1.195
	C201.056,118.782,200.644,118.247,200.135,118.247z M202.219,129.23c-1.452-1.452,0.149-7.055-1.583-8.786 M204.674,117.471
	c-3.205-2.623-2.365-5.588-5.395-7.526 M204.362,119.968c3.085-0.421,3.861-7.961,4.998-10.056 M203.946,122.705
	c6.574-2.023,7.854-16.191,7.2-20.23c-2.623,8.994-3.824,4.963-6.426,14.399 M204.898,113.422
	c-3.053-6.375-8.041-6.715-9.818-10.829c1.623,12.434,5.653,11.453,9.044,18.921L204.898,113.422z M206.984,106.004
	c-0.544,0-0.985,0.521-0.985,1.163c0,0.642,0.441,1.163,0.985,1.163c0.544,0,0.985-0.521,0.985-1.163
	C207.969,106.525,207.528,106.004,206.984,106.004z M204.868,110.785c1.233,0,1.606-2.39,1.809-2.39 M204.567,106.445
	c-6.208-1.092-6.383-5.798-9.98-8.159c1.248-0.528,2.995,0.278,3.013,0.251 M203.562,100.482c-4.687-1.864-4.357-5.348-8.159-6.967
	 M202.684,97.218c-7.301-7.996-8.587-5.837-12.678-9.226c3.703,4.765,2.073,7.72,14.122,15.252 M203.876,102.051
	c2.294-3.382,0.941-7.045,2.197-9.854 M204.353,105.001c5.26-4.958,3.631-13.967,0.602-19.131c0.978,4.486-1.786,6.402-1.732,13.407
	 M200.442,91.054c0.066-0.066,0.266-0.332,0.266-0.399v-0.066v-0.066v-0.066v-0.066v-0.066v-0.066V90.19v-0.066v-0.066V89.99v-0.066
	c0,0,0-0.199,0-0.266c0-0.066,0.133-0.133,0.133-0.199v-0.199v-0.133V89.06v-0.066v-0.133c0-0.066,0.133,0,0.133-0.133
	L200.442,91.054z M201.339,86.137c-0.642,0-1.163,0.595-1.163,1.329c0,0.734,0.521,1.329,1.163,1.329
	c0.642,0,1.163-0.595,1.163-1.329C202.502,86.732,201.981,86.137,201.339,86.137z M198.388,86.862
	c-7.953-4.273-7.249-5.68-10.305-6.44 M198.848,87.731c-13.428-7.774-11.349-1.09-18.738-11.96
	c7.992,4.665,4.554-2.08,17.941,10.432 M197.81,85.825c2.022-9.535-4.678-14.079-7.268-16.898
	c3.658,3.709,3.389,11.229,3.522,11.229 M195.725,82.482c-0.179-2.99,0.266-4.485-0.598-5.98 M188.952,74.206
	c-1.056-7.582-5.164-10.115-7.427-11.398c1.466,2.011,2.325,5.077,2.43,6.914 M186.253,71.669c-0.003-2.08-1.529-3.671-1.529-5.009
	 M180.986,67.507c-0.041-1.004-0.729-1.545-0.729-2.305L180.986,67.507z M179.845,63.321c-0.5,0-0.905,0.463-0.905,1.035
	c0,0.571,0.405,1.035,0.905,1.035c0.5,0,0.905-0.463,0.905-1.035C180.751,63.785,180.345,63.321,179.845,63.321z M185.036,70.592
	c-9.36,1.202-11.155-1.855-15.7-4.582c2.453-0.305,6.292-0.027,14.173,3.36 M184.302,70.009c-6.427-0.106-8.193-2.185-9.255-2.363
	 M177.766,65.428c-0.279-4.184-10.332-8.196-13.181-8.222c3.395,2.574,2.42,3.864,11.455,7.187c-0.835-2.204-4.488-2.577-5.743-4.08
	L177.766,65.428z M172.149,62.823c-3.608-0.948-9.666-3.968-14.404-2.981C163.264,64.6,166.591,63.994,172.149,62.823z
	 M171.826,62.891c-2.853-0.608-7.714-0.495-10.033-1.857"/>
<path id="path386" fill="#1B1918" stroke="#1B1918" stroke-width="0.2626" stroke-linecap="round" stroke-linejoin="round" d="
	M160.578,94.58c-0.289-0.506-0.705-1.001-1.181-1.217l-0.029,1.043l0.302,0.318l-0.011,7.791l0.612,0.358l-0.048-7.841l0.348-0.036
	L160.578,94.58z"/>
<path id="path388" fill="#1B1918" d="M143.137,159.434l-0.36,0.949c-1.099,0.72-2.328,1.079-3.688,1.079
	c-2.72,0-4.579-1.165-5.579-3.498c-0.464-1.076-0.696-2.247-0.696-3.504c0-2.035,0.568-3.653,1.704-4.863
	c1.163-1.247,2.747-1.87,4.757-1.87c1.277,0,2.525,0.276,3.744,0.828l0.101,0.14c-0.179,0.854-0.288,1.854-0.328,3.003l-0.072,0.092
	h-0.461l-0.077-0.102c-0.016-0.749-0.045-1.273-0.085-1.561c-0.65-0.876-1.592-1.311-2.821-1.311c-1.264,0-2.256,0.476-2.976,1.431
	c-0.717,0.956-1.077,2.25-1.077,3.885c0,2.215,0.64,3.913,1.92,5.097c0.683,0.632,1.597,0.949,2.744,0.949
	c1.04,0,2.059-0.32,3.053-0.958L143.137,159.434z M152.611,147.988c-0.072,0.574-0.109,1.581-0.109,3.012l-0.085,0.092h-0.493
	l-0.077-0.092c-0.005-0.038-0.013-0.162-0.024-0.372c-0.019-0.454-0.032-0.711-0.037-0.771c-0.043-0.378-0.115-0.616-0.219-0.708
	c-0.157-0.136-0.658-0.203-1.509-0.203h-2.32v8.043c0,1.476,0.035,2.435,0.102,2.882c0.027,0.181,0.115,0.295,0.267,0.343
	c0.077,0.026,0.381,0.057,0.914,0.095l0.077,0.092l0.008,0.632l-0.072,0.086c-0.072,0-0.269-0.006-0.592-0.019
	c-0.829-0.025-1.435-0.038-1.821-0.038c-0.515,0-1.32,0.019-2.413,0.057l-0.069-0.086v-0.632l0.077-0.092
	c0.531-0.038,0.835-0.07,0.915-0.095c0.149-0.048,0.237-0.162,0.264-0.343c0.069-0.447,0.101-1.406,0.101-2.882v-4.92
	c0-1.476-0.032-2.438-0.101-2.882c-0.027-0.181-0.115-0.295-0.264-0.346c-0.08-0.022-0.384-0.054-0.915-0.092l-0.077-0.092v-0.632
	l0.077-0.086l1.899,0.057c3.357,0,5.501-0.035,6.429-0.102L152.611,147.988z M163.579,148.042v0.616l-0.085,0.092
	c-0.547,0.098-0.931,0.276-1.152,0.536c-0.221,0.257-0.669,1.162-1.341,2.717c-0.656,1.533-1.315,3.06-1.976,4.587
	c-1.125,2.479-1.931,3.898-2.421,4.26c-0.376,0.279-0.808,0.416-1.296,0.416c-0.219,0-0.453-0.041-0.704-0.13l-0.077-0.14
	c0.005-0.124,0.008-0.216,0.008-0.276c0-0.635-0.077-1.498-0.227-2.596l0.07-0.13l0.258-0.044l0.117,0.054
	c0.416,0.819,0.898,1.228,1.445,1.228c0.432,0,0.763-0.162,0.992-0.486c0.099-0.133,0.221-0.387,0.365-0.752
	c-1.224-3.155-2.184-5.745-2.883-7.773c-0.224-0.651-0.411-1.054-0.563-1.21c-0.123-0.13-0.485-0.216-1.085-0.26l-0.085-0.092
	v-0.616l0.077-0.111c0.318,0.045,1.141,0.066,2.469,0.066c0.744,0,1.517-0.019,2.32-0.057l0.085,0.102v0.616l-0.07,0.092
	c-0.083,0.006-0.368,0.048-0.851,0.12c-0.208,0.032-0.315,0.13-0.315,0.299c0,0.051,0.032,0.187,0.096,0.419
	c0.144,0.533,0.488,1.498,1.029,2.901l1.064,2.742l1.296-3.32c0.339-0.86,0.581-1.546,0.728-2.054
	c0.077-0.266,0.117-0.454,0.117-0.559c0-0.162-0.176-0.289-0.526-0.381c-0.269-0.076-0.517-0.13-0.741-0.168l-0.085-0.092v-0.625
	l0.085-0.102c0.499,0.045,1.186,0.066,2.061,0.066c0.731,0,1.304-0.019,1.72-0.057L163.579,148.042z"/>
</svg>
